AmstelvarAlpha-wght1000-cntr8.ufo
<glyph name="parenright" format="1">
  <advance width="1344"/>
  <unicode hex="0029"/>
  <outline>
    <contour>
      <point x="1276" y="624" type="qcurve" smooth="yes"/>
      <point x="1276" y="313"/>
      <point x="578" y="-160"/>
      <point x="66" y="-247" type="qcurve"/>
      <point x="58" y="-223" type="line"/>
      <point x="161" y="-138"/>
      <point x="366" y="307"/>
      <point x="366" y="604" type="qcurve" smooth="yes"/>
      <point x="366" y="901"/>
      <point x="169" y="1397"/>
      <point x="62" y="1480" type="qcurve"/>
      <point x="69" y="1499" type="line"/>
      <point x="559" y="1418"/>
      <point x="1276" y="934"/>
    </contour>
  </outline>
</glyph>
<glyph name="asterisk" format="1">
  <advance width="1192"/>
  <unicode hex="002A"/>
  <outline>
    <contour>
      <point x="596" y="324" type="qcurve" smooth="yes"/>
      <point x="573" y="324"/>
      <point x="553" y="372"/>
      <point x="535" y="441" type="qcurve" smooth="yes"/>
      <point x="473" y="675" type="line"/>
      <point x="451" y="694" type="line"/>
      <point x="199" y="634" type="line" smooth="yes"/>
      <point x="137" y="619"/>
      <point x="85" y="607"/>
      <point x="75" y="626" type="qcurve"/>
      <point x="68" y="642"/>
      <point x="108" y="681"/>
      <point x="153" y="729" type="qcurve" smooth="yes"/>
      <point x="317" y="907" type="line"/>
      <point x="314" y="938" type="line"/>
      <point x="120" y="1151" type="line" smooth="yes"/>
      <point x="77" y="1199"/>
      <point x="64" y="1210"/>
      <point x="75" y="1227" type="qcurve" smooth="yes"/>
      <point x="87" y="1245"/>
      <point x="105" y="1235"/>
      <point x="166" y="1219" type="qcurve" smooth="yes"/>
      <point x="452" y="1144" type="line"/>
      <point x="473" y="1163" type="line"/>
      <point x="546" y="1424" type="line" smooth="yes"/>
      <point x="569" y="1507"/>
      <point x="572" y="1528"/>
      <point x="596" y="1528" type="qcurve" smooth="yes"/>
      <point x="621" y="1528"/>
      <point x="629" y="1503"/>
      <point x="650" y="1425" type="qcurve" smooth="yes"/>
      <point x="715" y="1177" type="line"/>
      <point x="745" y="1158" type="line"/>
      <point x="989" y="1211" type="line" smooth="yes"/>
      <point x="1053" y="1225"/>
      <point x="1110" y="1244"/>
      <point x="1117" y="1227" type="qcurve" smooth="yes"/>
      <point x="1125" y="1207"/>
      <point x="1095" y="1162"/>
      <point x="1049" y="1118" type="qcurve" smooth="yes"/>
      <point x="872" y="945" type="line"/>
      <point x="875" y="914" type="line"/>
      <point x="1044" y="734" type="line" smooth="yes"/>
      <point x="1088" y="687"/>
      <point x="1129" y="643"/>
      <point x="1117" y="625" type="qcurve" smooth="yes"/>
      <point x="1105" y="607"/>
      <point x="1052" y="615"/>
      <point x="987" y="632" type="qcurve" smooth="yes"/>
      <point x="753" y="694" type="line"/>
      <point x="722" y="675" type="line"/>
      <point x="651" y="434" type="line" smooth="yes"/>
      <point x="631" y="365"/>
      <point x="616" y="324"/>
    </contour>
  </outline>
</glyph>
<glyph name="comma" format="1">
  <advance width="1154"/>
  <unicode hex="002C"/>
  <outline>
    <contour>
      <point x="255" y="-364" type="line"/>
      <point x="416" y="-316"/>
      <point x="672" y="-139"/>
      <point x="729" y="43" type="qcurve"/>
      <point x="421" y="28"/>
      <point x="172" y="251"/>
      <point x="172" y="395" type="qcurve" smooth="yes"/>
      <point x="172" y="537"/>
      <point x="399" y="757"/>
      <point x="581" y="757" type="qcurve" smooth="yes"/>
      <point x="759" y="757"/>
      <point x="990" y="552"/>
      <point x="990" y="367" type="qcurve" smooth="yes"/>
      <point x="990" y="133"/>
      <point x="525" y="-317"/>
      <point x="266" y="-378" type="qcurve"/>
    </contour>
  </outline>
</glyph>
<glyph name="hyphen" format="1">
  <advance width="1339"/>
  <unicode hex="002D"/>
  <outline>
    <contour>
      <point x="80" y="401" type="line"/>
      <point x="80" y="863" type="line"/>
      <point x="670" y="860" type="line"/>
      <point x="1259" y="863" type="line"/>
      <point x="1259" y="401" type="line"/>
      <point x="670" y="404" type="line"/>
    </contour>
  </outline>
</glyph>
<glyph name="three" format="1">
  <advance width="2128"/>
  <unicode hex="0033"/>
  <outline>
    <contour>
      <point x="-14" y="281" type="qcurve"/>
      <point x="-12" y="297" type="line"/>
      <point x="84" y="176"/>
      <point x="391" y="44"/>
      <point x="594" y="44" type="qcurve" smooth="yes"/>
      <point x="754" y="44"/>
      <point x="919" y="250"/>
      <point x="919" y="414" type="qcurve" smooth="yes"/>
      <point x="919" y="580"/>
      <point x="715" y="768"/>
      <point x="481" y="768" type="qcurve" smooth="yes"/>
      <point x="456" y="768" type="line"/>
      <point x="448" y="779" type="line"/>
      <point x="504" y="779" type="line" smooth="yes"/>
      <point x="694" y="780"/>
      <point x="903" y="993"/>
      <point x="903" y="1149" type="qcurve" smooth="yes"/>
      <point x="903" y="1281"/>
      <point x="753" y="1467"/>
      <point x="605" y="1467" type="qcurve" smooth="yes"/>
      <point x="453" y="1467"/>
      <point x="164" y="1382"/>
      <point x="64" y="1308" type="qcurve"/>
      <point x="58" y="1318" type="line"/>
      <point x="194" y="1423"/>
      <point x="698" y="1520"/>
      <point x="1145" y="1520" type="qcurve" smooth="yes"/>
      <point x="1607" y="1520"/>
      <point x="2030" y="1353"/>
      <point x="2030" y="1194" type="qcurve" smooth="yes"/>
      <point x="2030" y="1013"/>
      <point x="1676" y="853"/>
      <point x="1322" y="838" type="qcurve"/>
      <point x="1322" y="832" type="line"/>
      <point x="1661" y="819"/>
      <point x="2098" y="648"/>
      <point x="2098" y="448" type="qcurve" smooth="yes"/>
      <point x="2098" y="209"/>
      <point x="1612" y="-26"/>
      <point x="1038" y="-26" type="qcurve" smooth="yes"/>
      <point x="582" y="-26"/>
      <point x="71" y="157"/>
    </contour>
  </outline>
</glyph>
<glyph name="five" format="1">
  <advance width="1904"/>
  <unicode hex="0035"/>
  <outline>
    <contour>
      <point x="-24" y="139" type="qcurve"/>
      <point x="-18" y="143" type="line"/>
      <point x="62" y="83"/>
      <point x="347" y="12"/>
      <point x="490" y="12" type="qcurve" smooth="yes"/>
      <point x="662" y="12"/>
      <point x="850" y="229"/>
      <point x="850" y="390" type="qcurve" smooth="yes"/>
      <point x="850" y="567"/>
      <point x="559" y="776"/>
      <point x="300" y="776" type="qcurve"/>
      <point x="132" y="776" type="line"/>
      <point x="137" y="781" type="line"/>
      <point x="1014" y="835" type="line"/>
      <point x="1434" y="846"/>
      <point x="1868" y="675"/>
      <point x="1868" y="457" type="qcurve" smooth="yes"/>
      <point x="1868" y="251"/>
      <point x="1461" y="-26"/>
      <point x="1009" y="-26" type="qcurve" smooth="yes"/>
      <point x="570" y="-26"/>
      <point x="80" y="59"/>
    </contour>
    <contour>
      <point x="132" y="776" type="qcurve"/>
      <point x="212" y="1467" type="line"/>
      <point x="239" y="1500" type="line"/>
      <point x="1787" y="1500" type="line"/>
      <point x="1747" y="924" type="line"/>
      <point x="172" y="924" type="line"/>
      <point x="160" y="915" type="line"/>
      <point x="152" y="863"/>
      <point x="138" y="776"/>
    </contour>
  </outline>
</glyph>
<glyph name="seven" format="1">
  <advance width="1975"/>
  <unicode hex="0037"/>
  <outline>
    <contour>
      <point x="44" y="690" type="line"/>
      <point x="44" y="1500" type="line"/>
      <point x="1975" y="1500" type="line"/>
      <point x="1975" y="1390" type="line"/>
      <point x="1535" y="743" type="line"/>
      <point x="1174" y="0" type="line"/>
      <point x="584" y="0" type="line"/>
      <point x="584" y="23" type="line"/>
      <point x="1513" y="750" type="line"/>
      <point x="1630" y="920" type="line"/>
      <point x="1623" y="924" type="line"/>
      <point x="88" y="924" type="line"/>
      <point x="52" y="690" type="line"/>
    </contour>
  </outline>
</glyph>
<glyph name="eight" format="1">
  <advance width="2641"/>
  <unicode hex="0038"/>
  <outline>
    <contour>
      <point x="62" y="395" type="qcurve" smooth="yes"/>
      <point x="62" y="588"/>
      <point x="621" y="780"/>
      <point x="1016" y="795" type="qcurve" smooth="yes"/>
      <point x="1169" y="800" type="line"/>
      <point x="1057" y="741"/>
      <point x="905" y="512"/>
      <point x="905" y="350" type="qcurve" smooth="yes"/>
      <point x="905" y="205"/>
      <point x="1113" y="-13"/>
      <point x="1316" y="-13" type="qcurve" smooth="yes"/>
      <point x="1450" y="-13"/>
      <point x="1649" y="147"/>
      <point x="1649" y="253" type="qcurve" smooth="yes"/>
      <point x="1649" y="365"/>
      <point x="1458" y="466"/>
      <point x="1136" y="538" type="qcurve" smooth="yes"/>
      <point x="622" y="653"/>
      <point x="336" y="894"/>
      <point x="336" y="1086" type="qcurve" smooth="yes"/>
      <point x="336" y="1275"/>
      <point x="838" y="1520"/>
      <point x="1339" y="1520" type="qcurve" smooth="yes"/>
      <point x="1823" y="1520"/>
      <point x="2299" y="1344"/>
      <point x="2299" y="1197" type="qcurve" smooth="yes"/>
      <point x="2299" y="1066"/>
      <point x="1852" y="856"/>
      <point x="1561" y="821" type="qcurve"/>
      <point x="1376" y="830" type="line"/>
      <point x="1518" y="911"/>
      <point x="1634" y="1098"/>
      <point x="1634" y="1208" type="qcurve" smooth="yes"/>
      <point x="1634" y="1361"/>
      <point x="1457" y="1512"/>
      <point x="1330" y="1512" type="qcurve" smooth="yes"/>
      <point x="1222" y="1512"/>
      <point x="1064" y="1401"/>
      <point x="1064" y="1299" type="qcurve" smooth="yes"/>
      <point x="1064" y="1198"/>
      <point x="1232" y="1058"/>
      <point x="1690" y="1011" type="qcurve" smooth="yes"/>
      <point x="2132" y="966"/>
      <point x="2579" y="704"/>
      <point x="2579" y="492" type="qcurve" smooth="yes"/>
      <point x="2579" y="235"/>
      <point x="1972" y="-21"/>
      <point x="1315" y="-21" type="qcurve" smooth="yes"/>
      <point x="685" y="-21"/>
      <point x="62" y="208"/>
    </contour>
  </outline>
</glyph>
<glyph name="colon" format="1">
  <advance width="1214"/>
  <unicode hex="003A"/>
  <outline>
    <contour>
      <point x="185" y="290" type="qcurve" smooth="yes"/>
      <point x="185" y="381"/>
      <point x="440" y="438"/>
      <point x="608" y="438" type="qcurve" smooth="yes"/>
      <point x="814" y="438"/>
      <point x="1029" y="381"/>
      <point x="1029" y="290" type="qcurve"/>
      <point x="1028" y="172"/>
      <point x="834" y="-22"/>
      <point x="608" y="-22" type="qcurve" smooth="yes"/>
      <point x="401" y="-22"/>
      <point x="185" y="172"/>
    </contour>
    <contour>
      <point x="186" y="766" type="qcurve" smooth="yes"/>
      <point x="186" y="864"/>
      <point x="401" y="1038"/>
      <point x="606" y="1038" type="qcurve" smooth="yes"/>
      <point x="794" y="1038"/>
      <point x="1029" y="864"/>
      <point x="1029" y="766" type="qcurve" smooth="yes"/>
      <point x="1029" y="655"/>
      <point x="774" y="594"/>
      <point x="606" y="594" type="qcurve" smooth="yes"/>
      <point x="440" y="594"/>
      <point x="185" y="655"/>
    </contour>
  </outline>
</glyph>
<glyph name="less" format="1">
  <advance width="1064"/>
  <unicode hex="003C"/>
  <outline>
    <contour>
      <point x="100" y="634" type="qcurve"/>
      <point x="100" y="634"/>
      <point x="651" y="1210"/>
      <point x="727" y="1288" type="qcurve" smooth="yes"/>
      <point x="758" y="1323"/>
      <point x="978" y="1106"/>
      <point x="950" y="1078" type="qcurve"/>
      <point x="874" y="1012"/>
      <point x="457" y="640"/>
      <point x="457" y="640" type="qcurve"/>
      <point x="457" y="640"/>
      <point x="902" y="237"/>
      <point x="948" y="214" type="qcurve"/>
      <point x="978" y="196"/>
      <point x="783" y="-64"/>
      <point x="760" y="-34" type="qcurve"/>
      <point x="685" y="46"/>
      <point x="100" y="634"/>
    </contour>
  </outline>
</glyph>
<glyph name="equal" format="1">
  <advance width="1724"/>
  <unicode hex="003D"/>
  <outline>
    <contour>
      <point x="110" y="114" type="line"/>
      <point x="110" y="456" type="line"/>
      <point x="862" y="453" type="line"/>
      <point x="1614" y="456" type="line"/>
      <point x="1614" y="114" type="line"/>
      <point x="862" y="117" type="line"/>
    </contour>
    <contour>
      <point x="110" y="776" type="line"/>
      <point x="110" y="1118" type="line"/>
      <point x="862" y="1115" type="line"/>
      <point x="1614" y="1118" type="line"/>
      <point x="1614" y="776" type="line"/>
      <point x="862" y="779" type="line"/>
    </contour>
  </outline>
</glyph>
<glyph name="question" format="1">
  <advance width="1676"/>
  <unicode hex="003F"/>
  <outline>
    <contour>
      <point x="152" y="309" type="qcurve" smooth="yes"/>
      <point x="152" y="444"/>
      <point x="361" y="614"/>
      <point x="524" y="614" type="qcurve" smooth="yes"/>
      <point x="685" y="614"/>
      <point x="894" y="444"/>
      <point x="894" y="309" type="qcurve" smooth="yes"/>
      <point x="894" y="177"/>
      <point x="685" y="-22"/>
      <point x="524" y="-22" type="qcurve" smooth="yes"/>
      <point x="361" y="-22"/>
      <point x="152" y="177"/>
    </contour>
    <contour>
      <point x="38" y="1270" type="line"/>
      <point x="120" y="1398"/>
      <point x="452" y="1540"/>
      <point x="714" y="1540" type="qcurve" smooth="yes"/>
      <point x="1199" y="1540"/>
      <point x="1656" y="1308"/>
      <point x="1656" y="1123" type="qcurve" smooth="yes"/>
      <point x="1656" y="930"/>
      <point x="1270" y="729"/>
      <point x="882" y="729" type="qcurve" smooth="yes"/>
      <point x="764" y="729"/>
      <point x="470" y="752"/>
      <point x="416" y="762" type="qcurve"/>
      <point x="425" y="646" type="line"/>
      <point x="405" y="646" type="line"/>
      <point x="395" y="750" type="line"/>
      <point x="383" y="759" type="line"/>
      <point x="396" y="773" type="line"/>
      <point x="426" y="768"/>
      <point x="510" y="760"/>
      <point x="546" y="760" type="qcurve" smooth="yes"/>
      <point x="666" y="760"/>
      <point x="776" y="956"/>
      <point x="776" y="1126" type="qcurve" smooth="yes"/>
      <point x="776" y="1296"/>
      <point x="626" y="1490"/>
      <point x="463" y="1490" type="qcurve" smooth="yes"/>
      <point x="351" y="1490"/>
      <point x="127" y="1376"/>
      <point x="51" y="1262" type="qcurve"/>
    </contour>
  </outline>
</glyph>
<glyph name="B" format="1">
  <advance width="2879"/>
  <unicode hex="0042"/>
  <outline>
    <contour>
      <point x="82" y="0" type="line"/>
      <point x="82" y="8" type="line"/>
      <point x="290" y="44" type="line"/>
      <point x="292" y="784" type="line"/>
      <point x="290" y="1456" type="line"/>
      <point x="82" y="1490" type="line"/>
      <point x="82" y="1500" type="line"/>
      <point x="2072" y="1500" type="line" smooth="yes"/>
      <point x="2437" y="1500"/>
      <point x="2711" y="1315"/>
      <point x="2711" y="1176" type="qcurve" smooth="yes"/>
      <point x="2711" y="1045"/>
      <point x="2531" y="867"/>
      <point x="2328" y="844" type="qcurve"/>
      <point x="2328" y="837" type="line"/>
      <point x="2556" y="814"/>
      <point x="2803" y="615"/>
      <point x="2803" y="441" type="qcurve" smooth="yes"/>
      <point x="2803" y="251"/>
      <point x="2482" y="0"/>
      <point x="2118" y="0" type="qcurve" smooth="yes"/>
    </contour>
    <contour>
      <point x="1280" y="35" type="line"/>
      <point x="1323" y="8" type="line"/>
      <point x="1455" y="8" type="line" smooth="yes"/>
      <point x="1641" y="8"/>
      <point x="1818" y="213"/>
      <point x="1818" y="435" type="qcurve" smooth="yes"/>
      <point x="1818" y="624"/>
      <point x="1653" y="819"/>
      <point x="1484" y="819" type="qcurve" smooth="yes"/>
      <point x="1278" y="819" type="line"/>
      <point x="1278" y="803" type="line"/>
    </contour>
    <contour>
      <point x="1278" y="851" type="line"/>
      <point x="1277" y="827" type="line"/>
      <point x="1454" y="827" type="line" smooth="yes"/>
      <point x="1594" y="827"/>
      <point x="1714" y="1026"/>
      <point x="1714" y="1196" type="qcurve" smooth="yes"/>
      <point x="1714" y="1351"/>
      <point x="1570" y="1492"/>
      <point x="1434" y="1492" type="qcurve" smooth="yes"/>
      <point x="1321" y="1492" type="line"/>
      <point x="1282" y="1470" type="line"/>
    </contour>
  </outline>
</glyph>
<glyph name="I" format="1">
  <advance width="1610"/>
  <unicode hex="0049"/>
  <outline>
    <contour>
      <point x="82" y="0" type="line"/>
      <point x="82" y="8" type="line"/>
      <point x="300" y="43" type="line"/>
      <point x="302" y="754" type="line"/>
      <point x="300" y="1456" type="line"/>
      <point x="82" y="1490" type="line"/>
      <point x="82" y="1500" type="line"/>
      <point x="1528" y="1500" type="line"/>
      <point x="1528" y="1490" type="line"/>
      <point x="1310" y="1456" type="line"/>
      <point x="1308" y="754" type="line"/>
      <point x="1310" y="44" type="line"/>
      <point x="1528" y="8" type="line"/>
      <point x="1528" y="0" type="line"/>
    </contour>
  </outline>
</glyph>
<glyph name="J" format="1">
  <advance width="1482"/>
  <unicode hex="004A"/>
  <outline>
    <contour>
      <point x="16" y="0" type="qcurve"/>
      <point x="16" y="8" type="line"/>
      <point x="57" y="8" type="line" smooth="yes"/>
      <point x="193" y="8"/>
      <point x="295" y="123"/>
      <point x="294" y="265" type="qcurve" smooth="yes"/>
      <point x="292" y="754" type="line"/>
      <point x="290" y="1456" type="line"/>
      <point x="52" y="1490" type="line"/>
      <point x="52" y="1500" type="line"/>
      <point x="1482" y="1500" type="line"/>
      <point x="1482" y="1490" type="line"/>
      <point x="1292" y="1456" type="line"/>
      <point x="1290" y="754" type="line"/>
      <point x="1292" y="571" type="line" smooth="yes"/>
      <point x="1295" y="300"/>
      <point x="904" y="-45"/>
      <point x="555" y="-45" type="qcurve" smooth="yes"/>
      <point x="409" y="-45"/>
      <point x="74" y="-19"/>
    </contour>
  </outline>
</glyph>
<glyph name="U" format="1">
  <advance width="2454"/>
  <unicode hex="0055"/>
  <outline>
    <contour>
      <point x="74" y="1490" type="line"/>
      <point x="74" y="1500" type="line"/>
      <point x="1492" y="1500" type="line"/>
      <point x="1492" y="1490" type="line"/>
      <point x="1285" y="1456" type="line"/>
      <point x="1280" y="794" type="line"/>
      <point x="1286" y="481" type="line" smooth="yes"/>
      <point x="1290" y="226"/>
      <point x="1516" y="8"/>
      <point x="1711" y="8" type="qcurve" smooth="yes"/>
      <point x="1923" y="8"/>
      <point x="2187" y="298"/>
      <point x="2187" y="574" type="qcurve" smooth="yes"/>
      <point x="2187" y="794" type="line"/>
      <point x="2187" y="1456" type="line"/>
      <point x="1904" y="1490" type="line"/>
      <point x="1904" y="1500" type="line"/>
      <point x="2470" y="1500" type="line"/>
      <point x="2470" y="1490" type="line"/>
      <point x="2197" y="1456" type="line"/>
      <point x="2197" y="794" type="line"/>
      <point x="2197" y="577" type="line" smooth="yes"/>
      <point x="2197" y="269"/>
      <point x="1882" y="-32"/>
      <point x="1462" y="-32" type="qcurve"/>
      <point x="735" y="-32"/>
      <point x="279" y="255"/>
      <point x="282" y="581" type="qcurve" smooth="yes"/>
      <point x="284" y="794" type="line"/>
      <point x="282" y="1456" type="line"/>
    </contour>
  </outline>
</glyph>
<glyph name="V" format="1">
  <advance width="2476"/>
  <unicode hex="0056"/>
  <outline>
    <contour>
      <point x="-69" y="1490" type="line"/>
      <point x="-69" y="1500" type="line"/>
      <point x="1285" y="1500" type="line"/>
      <point x="1285" y="1490" type="line"/>
      <point x="1117" y="1449" type="line"/>
      <point x="1395" y="839" type="line"/>
      <point x="1723" y="118" type="line"/>
      <point x="2018" y="794" type="line"/>
      <point x="2311" y="1455" type="line"/>
      <point x="2060" y="1490" type="line"/>
      <point x="2060" y="1500" type="line"/>
      <point x="2566" y="1500" type="line"/>
      <point x="2566" y="1490" type="line"/>
      <point x="2322" y="1454" type="line"/>
      <point x="2026" y="791" type="line"/>
      <point x="1694" y="0" type="line"/>
      <point x="772" y="0" type="line"/>
      <point x="465" y="682" type="line"/>
      <point x="99" y="1451" type="line"/>
    </contour>
  </outline>
</glyph>
<glyph name="X" format="1">
  <advance width="2636"/>
  <unicode hex="0058"/>
  <outline>
    <contour>
      <point x="-80" y="0" type="line"/>
      <point x="-80" y="8" type="line"/>
      <point x="157" y="39" type="line"/>
      <point x="1100" y="788" type="line"/>
      <point x="1424" y="788" type="line"/>
      <point x="2257" y="1462" type="line"/>
      <point x="1990" y="1490" type="line"/>
      <point x="1990" y="1500" type="line"/>
      <point x="2516" y="1500" type="line"/>
      <point x="2516" y="1490" type="line"/>
      <point x="2268" y="1461" type="line"/>
      <point x="1425" y="777" type="line"/>
      <point x="1100" y="777" type="line"/>
      <point x="171" y="37" type="line"/>
      <point x="416" y="8" type="line"/>
      <point x="416" y="0" type="line"/>
    </contour>
    <contour>
      <point x="-40" y="1490" type="line"/>
      <point x="-40" y="1500" type="line"/>
      <point x="1454" y="1500" type="line"/>
      <point x="1454" y="1490" type="line"/>
      <point x="1281" y="1457" type="line"/>
      <point x="1793" y="871" type="line"/>
      <point x="2568" y="43" type="line"/>
      <point x="2736" y="8" type="line"/>
      <point x="2736" y="0" type="line"/>
      <point x="1232" y="0" type="line"/>
      <point x="1232" y="8" type="line"/>
      <point x="1405" y="43" type="line"/>
      <point x="882" y="641" type="line"/>
      <point x="118" y="1459" type="line"/>
    </contour>
  </outline>
</glyph>
<glyph name="a" format="1">
  <advance width="2552"/>
  <unicode hex="0061"/>
  <outline>
    <contour>
      <point x="38" y="226" type="qcurve" smooth="yes"/>
      <point x="38" y="399"/>
      <point x="680" y="592"/>
      <point x="1380" y="610" type="qcurve"/>
      <point x="1381" y="602" type="line"/>
      <point x="1155" y="581"/>
      <point x="919" y="377"/>
      <point x="919" y="255" type="qcurve" smooth="yes"/>
      <point x="919" y="153"/>
      <point x="1017" y="48"/>
      <point x="1132" y="48" type="qcurve" smooth="yes"/>
      <point x="1224" y="48"/>
      <point x="1350" y="127"/>
      <point x="1367" y="190" type="qcurve"/>
      <point x="1374" y="190" type="line"/>
      <point x="1359" y="106"/>
      <point x="1112" y="-15"/>
      <point x="724" y="-15" type="qcurve" smooth="yes"/>
      <point x="373" y="-15"/>
      <point x="38" y="123"/>
    </contour>
    <contour>
      <point x="459" y="889" type="line"/>
      <point x="546" y="943"/>
      <point x="936" y="1021"/>
      <point x="1366" y="1021" type="qcurve" smooth="yes"/>
      <point x="1817" y="1021"/>
      <point x="2351" y="747"/>
      <point x="2353" y="537" type="qcurve" smooth="yes"/>
      <point x="2358" y="43" type="line"/>
      <point x="2506" y="8" type="line"/>
      <point x="2506" y="0" type="line"/>
      <point x="1421" y="0" type="line"/>
      <point x="1402" y="15" type="line"/>
      <point x="1367" y="190" type="line"/>
      <point x="1369" y="587" type="line" smooth="yes"/>
      <point x="1370" y="812"/>
      <point x="1151" y="991"/>
      <point x="941" y="991" type="qcurve" smooth="yes"/>
      <point x="794" y="991"/>
      <point x="535" y="925"/>
      <point x="465" y="881" type="qcurve"/>
    </contour>
  </outline>
</glyph>
<glyph name="c" format="1">
  <advance width="1888"/>
  <unicode hex="0063"/>
  <outline>
    <contour>
      <point x="64" y="475" type="qcurve" smooth="yes"/>
      <point x="64" y="736"/>
      <point x="606" y="1022"/>
      <point x="1094" y="1022" type="qcurve" smooth="yes"/>
      <point x="1382" y="1022"/>
      <point x="1586" y="980"/>
      <point x="1661" y="931" type="qcurve"/>
      <point x="1654" y="927" type="line"/>
      <point x="1632" y="945"/>
      <point x="1499" y="1001"/>
      <point x="1411" y="1001" type="qcurve" smooth="yes"/>
      <point x="1258" y="1001"/>
      <point x="1075" y="775"/>
      <point x="1074" y="538" type="qcurve" smooth="yes"/>
      <point x="1073" y="255"/>
      <point x="1279" y="42"/>
      <point x="1447" y="42" type="qcurve" smooth="yes"/>
      <point x="1575" y="42"/>
      <point x="1792" y="153"/>
      <point x="1830" y="217" type="qcurve"/>
      <point x="1838" y="214" type="line"/>
      <point x="1752" y="95"/>
      <point x="1382" y="-22"/>
      <point x="1065" y="-22" type="qcurve" smooth="yes"/>
      <point x="588" y="-22"/>
      <point x="64" y="224"/>
    </contour>
    <contour>
      <point x="1654" y="927" type="line"/>
      <point x="1762" y="1022" type="line"/>
      <point x="1770" y="1022" type="line"/>
      <point x="1770" y="689" type="line"/>
      <point x="1760" y="689" type="line"/>
    </contour>
  </outline>
</glyph>
<glyph name="g" format="1">
  <advance width="2351"/>
  <unicode hex="0067"/>
  <outline>
    <contour>
      <point x="-7" y="-273" type="qcurve" smooth="yes"/>
      <point x="-7" y="-178"/>
      <point x="291" y="-65"/>
      <point x="714" y="-57" type="qcurve"/>
      <point x="718" y="-74" type="line"/>
      <point x="611" y="-104"/>
      <point x="523" y="-216"/>
      <point x="523" y="-281" type="qcurve" smooth="yes"/>
      <point x="523" y="-396"/>
      <point x="765" y="-499"/>
      <point x="991" y="-499" type="qcurve" smooth="yes"/>
      <point x="1274" y="-499"/>
      <point x="1484" y="-382"/>
      <point x="1484" y="-267" type="qcurve" smooth="yes"/>
      <point x="1484" y="-185"/>
      <point x="1322" y="-110"/>
      <point x="1055" y="-98" type="qcurve" smooth="yes"/>
      <point x="433" y="-70"/>
      <point x="53" y="35"/>
      <point x="53" y="187" type="qcurve" smooth="yes"/>
      <point x="53" y="299"/>
      <point x="281" y="440"/>
      <point x="366" y="465" type="qcurve"/>
      <point x="418" y="471" type="line"/>
      <point x="336" y="438"/>
      <point x="282" y="370"/>
      <point x="282" y="320" type="qcurve" smooth="yes"/>
      <point x="282" y="258"/>
      <point x="472" y="201"/>
      <point x="1020" y="194" type="qcurve" smooth="yes"/>
      <point x="1699" y="185"/>
      <point x="2344" y="41"/>
      <point x="2344" y="-141" type="qcurve" smooth="yes"/>
      <point x="2344" y="-327"/>
      <point x="1768" y="-508"/>
      <point x="1045" y="-508" type="qcurve" smooth="yes"/>
      <point x="357" y="-508"/>
      <point x="-7" y="-369"/>
    </contour>
    <contour>
      <point x="105" y="650" type="qcurve" smooth="yes"/>
      <point x="105" y="845"/>
      <point x="617" y="1022"/>
      <point x="1111" y="1022" type="qcurve" smooth="yes"/>
      <point x="1605" y="1022"/>
      <point x="2124" y="847"/>
      <point x="2124" y="655" type="qcurve" smooth="yes"/>
      <point x="2124" y="462"/>
      <point x="1632" y="260"/>
      <point x="1123" y="260" type="qcurve" smooth="yes"/>
      <point x="614" y="260"/>
      <point x="105" y="456"/>
    </contour>
    <contour>
      <point x="880" y="673" type="qcurve" smooth="yes"/>
      <point x="880" y="478"/>
      <point x="1009" y="269"/>
      <point x="1114" y="269" type="qcurve" smooth="yes"/>
      <point x="1227" y="269"/>
      <point x="1349" y="461"/>
      <point x="1349" y="659" type="qcurve" smooth="yes"/>
      <point x="1349" y="823"/>
      <point x="1221" y="1014"/>
      <point x="1116" y="1014" type="qcurve" smooth="yes"/>
      <point x="1004" y="1014"/>
      <point x="880" y="843"/>
    </contour>
    <contour>
      <point x="1274" y="965" type="line"/>
      <point x="1259" y="980" type="line"/>
      <point x="2392" y="980" type="line"/>
      <point x="2392" y="935" type="line"/>
    </contour>
  </outline>
</glyph>
<glyph name="h" format="1">
  <advance width="2898"/>
  <unicode hex="0068"/>
  <outline>
    <contour>
      <point x="76" y="0" type="line"/>
      <point x="76" y="8" type="line"/>
      <point x="218" y="43" type="line"/>
      <point x="220" y="527" type="line"/>
      <point x="218" y="1462" type="line"/>
      <point x="52" y="1492" type="line"/>
      <point x="52" y="1500" type="line"/>
      <point x="1188" y="1534" type="line"/>
      <point x="1200" y="1533" type="line"/>
      <point x="1208" y="1502" type="line"/>
      <point x="1206" y="527" type="line"/>
      <point x="1208" y="43" type="line"/>
      <point x="1346" y="8" type="line"/>
      <point x="1346" y="0" type="line"/>
    </contour>
    <contour>
      <point x="1200" y="768" type="qcurve"/>
      <point x="1197" y="781" type="line"/>
      <point x="1302" y="919"/>
      <point x="1711" y="1027"/>
      <point x="2006" y="1025" type="qcurve" smooth="yes"/>
      <point x="2345" y="1023"/>
      <point x="2683" y="853"/>
      <point x="2683" y="723" type="qcurve" smooth="yes"/>
      <point x="2683" y="649"/>
      <point x="2679" y="527"/>
      <point x="2679" y="527" type="qcurve"/>
      <point x="2684" y="43" type="line"/>
      <point x="2832" y="8" type="line"/>
      <point x="2832" y="0" type="line"/>
      <point x="1536" y="0" type="line"/>
      <point x="1536" y="8" type="line"/>
      <point x="1694" y="43" type="line"/>
      <point x="1696" y="527" type="line"/>
      <point x="1696" y="714" type="line" smooth="yes"/>
      <point x="1696" y="823"/>
      <point x="1594" y="942"/>
      <point x="1494" y="942" type="qcurve" smooth="yes"/>
      <point x="1416" y="942"/>
      <point x="1240" y="834"/>
    </contour>
  </outline>
</glyph>
<glyph name="l" format="1">
  <advance width="1452"/>
  <unicode hex="006C"/>
  <outline>
    <contour>
      <point x="76" y="0" type="line"/>
      <point x="76" y="8" type="line"/>
      <point x="238" y="43" type="line"/>
      <point x="240" y="527" type="line"/>
      <point x="238" y="1462" type="line"/>
      <point x="52" y="1492" type="line"/>
      <point x="52" y="1500" type="line"/>
      <point x="1208" y="1534" type="line"/>
      <point x="1215" y="1533" type="line"/>
      <point x="1228" y="1501" type="line"/>
      <point x="1226" y="527" type="line"/>
      <point x="1228" y="43" type="line"/>
      <point x="1386" y="8" type="line"/>
      <point x="1386" y="0" type="line"/>
    </contour>
  </outline>
</glyph>
<glyph name="q" format="1">
  <advance width="2806"/>
  <unicode hex="0071"/>
  <outline>
    <contour>
      <point x="68" y="477" type="qcurve" smooth="yes"/>
      <point x="68" y="721"/>
      <point x="599" y="1020"/>
      <point x="1003" y="1020" type="qcurve" smooth="yes"/>
      <point x="1340" y="1020"/>
      <point x="1576" y="952"/>
      <point x="1633" y="883" type="qcurve"/>
      <point x="1633" y="872" type="line"/>
      <point x="1586" y="928"/>
      <point x="1436" y="991"/>
      <point x="1355" y="991" type="qcurve" smooth="yes"/>
      <point x="1222" y="991"/>
      <point x="1050" y="771"/>
      <point x="1050" y="496" type="qcurve"/>
      <point x="1050" y="262"/>
      <point x="1211" y="31"/>
      <point x="1339" y="31" type="qcurve" smooth="yes"/>
      <point x="1441" y="31"/>
      <point x="1589" y="134"/>
      <point x="1632" y="209" type="qcurve"/>
      <point x="1639" y="203" type="line"/>
      <point x="1540" y="51"/>
      <point x="1228" y="-9"/>
      <point x="934" y="-9" type="qcurve"/>
      <point x="594" y="-9"/>
      <point x="68" y="253"/>
    </contour>
    <contour>
      <point x="1459" y="-480" type="line"/>
      <point x="1459" y="-472" type="line"/>
      <point x="1622" y="-437" type="line"/>
      <point x="1629" y="219" type="line"/>
      <point x="1631" y="906" type="line"/>
      <point x="1701" y="1000" type="line"/>
      <point x="2766" y="969" type="line"/>
      <point x="2766" y="953" type="line"/>
      <point x="2617" y="933" type="line"/>
      <point x="2611" y="428" type="line"/>
      <point x="2612" y="-437" type="line"/>
      <point x="2764" y="-472" type="line"/>
      <point x="2764" y="-480" type="line"/>
    </contour>
  </outline>
</glyph>
<glyph name="u" format="1">
  <advance width="2884"/>
  <unicode hex="0075"/>
  <outline>
    <contour>
      <point x="56" y="958" type="line"/>
      <point x="56" y="966" type="line"/>
      <point x="1134" y="1000" type="line"/>
      <point x="1169" y="1000" type="line"/>
      <point x="1194" y="964" type="line"/>
      <point x="1192" y="473" type="line"/>
      <point x="1192" y="335" type="line" smooth="yes"/>
      <point x="1192" y="185"/>
      <point x="1286" y="87"/>
      <point x="1385" y="87" type="qcurve" smooth="yes"/>
      <point x="1480" y="87"/>
      <point x="1624" y="176"/>
      <point x="1688" y="257" type="qcurve"/>
      <point x="1689" y="245" type="line"/>
      <point x="1574" y="95"/>
      <point x="1133" y="-17"/>
      <point x="873" y="-17" type="qcurve" smooth="yes"/>
      <point x="544" y="-17"/>
      <point x="207" y="160"/>
      <point x="207" y="315" type="qcurve" smooth="yes"/>
      <point x="207" y="388"/>
      <point x="209" y="473"/>
      <point x="209" y="473" type="qcurve"/>
      <point x="204" y="928" type="line"/>
    </contour>
    <contour>
      <point x="1542" y="958" type="line"/>
      <point x="1542" y="966" type="line"/>
      <point x="2610" y="1000" type="line"/>
      <point x="2645" y="1000" type="line"/>
      <point x="2670" y="964" type="line"/>
      <point x="2668" y="473" type="line"/>
      <point x="2670" y="72" type="line"/>
      <point x="2818" y="42" type="line"/>
      <point x="2818" y="34" type="line"/>
      <point x="1740" y="0" type="line"/>
      <point x="1705" y="27" type="line"/>
      <point x="1684" y="76" type="line"/>
      <point x="1682" y="473" type="line"/>
      <point x="1680" y="928" type="line"/>
    </contour>
  </outline>
</glyph>
<glyph name="v" format="1">
  <advance width="2366"/>
  <unicode hex="0076"/>
  <outline>
    <contour>
      <point x="-40" y="992" type="line"/>
      <point x="-40" y="1000" type="line"/>
      <point x="1204" y="1000" type="line"/>
      <point x="1204" y="992" type="line"/>
      <point x="1071" y="955" type="line"/>
      <point x="1347" y="520" type="line"/>
      <point x="1627" y="97" type="line"/>
      <point x="1911" y="503" type="line"/>
      <point x="2226" y="961" type="line"/>
      <point x="2030" y="992" type="line"/>
      <point x="2030" y="1000" type="line"/>
      <point x="2446" y="1000" type="line"/>
      <point x="2446" y="992" type="line"/>
      <point x="2235" y="961" type="line"/>
      <point x="1918" y="499" type="line"/>
      <point x="1575" y="0" type="line"/>
      <point x="752" y="0" type="line"/>
      <point x="455" y="424" type="line"/>
      <point x="78" y="957" type="line"/>
    </contour>
  </outline>
</glyph>
<glyph name="x" format="1">
  <advance width="2322"/>
  <unicode hex="0078"/>
  <outline>
    <contour>
      <point x="-4" y="0" type="line"/>
      <point x="-4" y="8" type="line"/>
      <point x="204" y="40" type="line"/>
      <point x="822" y="526" type="line"/>
      <point x="1423" y="526" type="line"/>
      <point x="2006" y="961" type="line"/>
      <point x="1789" y="992" type="line"/>
      <point x="1789" y="1000" type="line"/>
      <point x="2205" y="1000" type="line"/>
      <point x="2205" y="992" type="line"/>
      <point x="2016" y="960" type="line"/>
      <point x="1427" y="519" type="line"/>
      <point x="826" y="519" type="line"/>
      <point x="216" y="39" type="line"/>
      <point x="412" y="8" type="line"/>
      <point x="412" y="0" type="line"/>
    </contour>
    <contour>
      <point x="20" y="992" type="line"/>
      <point x="20" y="1000" type="line"/>
      <point x="1421" y="1000" type="line"/>
      <point x="1421" y="992" type="line"/>
      <point x="1298" y="955" type="line"/>
      <point x="1688" y="535" type="line"/>
      <point x="2194" y="43" type="line"/>
      <point x="2322" y="8" type="line"/>
      <point x="2322" y="0" type="line"/>
      <point x="911" y="0" type="line"/>
      <point x="911" y="8" type="line"/>
      <point x="1034" y="45" type="line"/>
      <point x="619" y="475" type="line"/>
      <point x="138" y="957" type="line"/>
    </contour>
  </outline>
</glyph>
<glyph name="z" format="1">
  <advance width="1885"/>
  <unicode hex="007A"/>
  <outline>
    <contour>
      <point x="32" y="0" type="line"/>
      <point x="32" y="50" type="line"/>
      <point x="826" y="992" type="line"/>
      <point x="195" y="992" type="line"/>
      <point x="89" y="740" type="line"/>
      <point x="80" y="740" type="line"/>
      <point x="80" y="1000" type="line"/>
      <point x="1835" y="1000" type="line"/>
      <point x="1835" y="942" type="line"/>
      <point x="1047" y="8" type="line"/>
      <point x="1716" y="8" type="line"/>
      <point x="1843" y="260" type="line"/>
      <point x="1851" y="260" type="line"/>
      <point x="1851" y="0" type="line"/>
    </contour>
  </outline>
</glyph>
<glyph name="braceright" format="1">
  <advance width="1313"/>
  <unicode hex="007D"/>
  <outline>
    <contour>
      <point x="1253" y="531" type="line"/>
      <point x="873" y="531" type="line"/>
      <point x="873" y="500" type="line" smooth="yes"/>
      <point x="873" y="370"/>
      <point x="1137" y="-50"/>
      <point x="1137" y="-168" type="qcurve" smooth="yes"/>
      <point x="1137" y="-327"/>
      <point x="903" y="-495"/>
      <point x="650" y="-495" type="qcurve" smooth="yes"/>
      <point x="608" y="-495"/>
      <point x="53" y="-483"/>
      <point x="15" y="-479" type="qcurve"/>
      <point x="15" y="-469" type="line"/>
      <point x="63" y="-471"/>
      <point x="113" y="-471"/>
      <point x="143" y="-471" type="qcurve" smooth="yes"/>
      <point x="248" y="-471"/>
      <point x="357" y="-371"/>
      <point x="357" y="-247" type="qcurve"/>
      <point x="357" y="-107"/>
      <point x="141" y="177"/>
      <point x="141" y="314" type="qcurve" smooth="yes"/>
      <point x="141" y="403"/>
      <point x="323" y="536"/>
      <point x="557" y="550" type="qcurve"/>
      <point x="328" y="565"/>
      <point x="141" y="690"/>
      <point x="141" y="780" type="qcurve" smooth="yes"/>
      <point x="141" y="860"/>
      <point x="347" y="1110"/>
      <point x="347" y="1246" type="qcurve" smooth="yes"/>
      <point x="347" y="1377"/>
      <point x="239" y="1492"/>
      <point x="123" y="1492" type="qcurve" smooth="yes"/>
      <point x="93" y="1492"/>
      <point x="43" y="1492"/>
      <point x="10" y="1490" type="qcurve"/>
      <point x="10" y="1500" type="line"/>
      <point x="47" y="1503"/>
      <point x="643" y="1510"/>
      <point x="690" y="1510" type="qcurve" smooth="yes"/>
      <point x="897" y="1510"/>
      <point x="1127" y="1321"/>
      <point x="1127" y="1200" type="qcurve" smooth="yes"/>
      <point x="1127" y="1080"/>
      <point x="863" y="820"/>
      <point x="863" y="707" type="qcurve" smooth="yes"/>
      <point x="863" y="628"/>
      <point x="1024" y="557"/>
      <point x="1123" y="549" type="qcurve" smooth="yes"/>
      <point x="1253" y="539" type="line"/>
    </contour>
  </outline>
</glyph>
<glyph name="asciitilde" format="1">
  <advance width="1624"/>
  <unicode hex="007E"/>
  <outline>
    <contour>
      <point x="79" y="744" type="line"/>
      <point x="141" y="827"/>
      <point x="510" y="986"/>
      <point x="598" y="986" type="qcurve"/>
      <point x="1070" y="861" type="line"/>
      <point x="1180" y="861"/>
      <point x="1349" y="938"/>
      <point x="1415" y="1013" type="qcurve"/>
      <point x="1525" y="608" type="line"/>
      <point x="1475" y="514"/>
      <point x="1112" y="336"/>
      <point x="1000" y="336" type="qcurve"/>
      <point x="551" y="461" type="line"/>
      <point x="451" y="461"/>
      <point x="164" y="405"/>
      <point x="87" y="337" type="qcurve"/>
    </contour>
  </outline>
</glyph>
